<svg width="37" height="37" viewBox="0 0 37 37" fill="none" xmlns="http://www.w3.org/2000/svg">
<g clip-path="url(#clip0_226_597)">
<path d="M29.6 0H7.4C3.31309 0 0 3.31309 0 7.4V29.6C0 33.6869 3.31309 37 7.4 37H29.6C33.6869 37 37 33.6869 37 29.6V7.4C37 3.31309 33.6869 0 29.6 0Z" fill="url(#paint0_linear_226_597)"/>
<path d="M7.40039 1H29.5996C33.1342 1 36 3.86577 36 7.40039V29.5996C36 33.1342 33.1342 36 29.5996 36H7.40039C3.86577 36 1 33.1342 1 29.5996V7.40039C1 3.86577 3.86577 1 7.40039 1Z" stroke="#334155" stroke-width="2"/>
<path d="M11.84 12.95L8.14001 18.5L11.84 24.05" stroke="url(#paint1_linear_226_597)" stroke-width="4" stroke-linecap="round" stroke-linejoin="round"/>
<path d="M16.65 24.05L20.35 12.95" stroke="url(#paint2_linear_226_597)" stroke-width="4" stroke-linecap="round"/>
<path d="M25.16 12.95L28.86 18.5L25.16 24.05" stroke="url(#paint3_linear_226_597)" stroke-width="4" stroke-linecap="round" stroke-linejoin="round"/>
</g>
<defs>
<linearGradient id="paint0_linear_226_597" x1="0" y1="0" x2="3700" y2="3700" gradientUnits="userSpaceOnUse">
<stop stop-color="#0F172A"/>
<stop offset="1" stop-color="#1E293B"/>
</linearGradient>
<linearGradient id="paint1_linear_226_597" x1="8.14001" y1="12.95" x2="674.14" y2="234.95" gradientUnits="userSpaceOnUse">
<stop stop-color="#22D3EE"/>
<stop offset="1" stop-color="#06B6D4"/>
</linearGradient>
<linearGradient id="paint2_linear_226_597" x1="16.65" y1="12.95" x2="682.65" y2="234.95" gradientUnits="userSpaceOnUse">
<stop stop-color="#22D3EE"/>
<stop offset="1" stop-color="#06B6D4"/>
</linearGradient>
<linearGradient id="paint3_linear_226_597" x1="25.16" y1="12.95" x2="691.16" y2="234.95" gradientUnits="userSpaceOnUse">
<stop stop-color="#22D3EE"/>
<stop offset="1" stop-color="#06B6D4"/>
</linearGradient>
<clipPath id="clip0_226_597">
<rect width="37" height="37" fill="white"/>
</clipPath>
</defs>
</svg>
